<svg id="Capa_1" enable-background="new 0 0 512.008 512.008" height="512" viewBox="0 0 512.008 512.008" width="512" xmlns="http://www.w3.org/2000/svg"><g id="XMLID_1727_"><g id="XMLID_1149_"><path id="XMLID_1155_" d="m24.837 74.881 239.55-64.187c10.669-2.859 21.636 3.473 24.495 14.142l97.316 363.188c2.859 10.669-3.473 21.636-14.142 24.495l-239.55 64.187c-10.669 2.859-21.636-3.473-24.495-14.142l-97.317-363.188c-2.858-10.669 3.473-21.636 14.143-24.495z" fill="#fff"/><path id="XMLID_1154_" d="m161.558 297.697c17.733 10.238 39.937 5.716 52.388-9.753 18.518 7.17 40.007-.014 50.245-17.748 11.317-19.602 4.601-44.667-15.001-55.984l-65.067-37.566-37.566 65.067c-11.317 19.602-4.601 44.666 15.001 55.984z" fill="#6d92ac"/></g><g id="XMLID_1145_"><path id="XMLID_1148_" d="m234.008 86.008h248c11.046 0 20 8.954 20 20v376c0 11.046-8.954 20-20 20h-248c-11.046 0-20-8.954-20-20v-376c0-11.046 8.954-20 20-20z" fill="#fff"/><path id="XMLID_1803_" d="m411.135 251.922c-14.479-14.479-37.096-15.857-53.127-4.139-16.031-11.719-38.648-10.341-53.127 4.139-16.005 16.005-16.005 41.954 0 57.959l53.127 53.127 53.127-53.127c16.005-16.005 16.005-41.954 0-57.959z" fill="#ff7d97"/></g><g id="XMLID_1101_"><path id="XMLID_1121_" d="m93.295 102.498c-2.436-3.336-6.674-4.831-10.664-3.762s-6.913 4.482-7.354 8.59l-6.42 59.695c-.59 5.491 3.382 10.421 8.874 11.012.363.039.724.058 1.081.058 5.043 0 9.379-3.804 9.931-8.932l3.654-33.979 20.153 27.6c3.257 4.46 9.514 5.436 13.974 2.179s5.436-9.513 2.179-13.974z"/><path id="XMLID_1254_" d="m482.008 76.008h-169.063l-14.405-53.76c-2.074-7.74-7.038-14.209-13.978-18.216-6.939-4.007-15.022-5.071-22.765-2.997l-239.549 64.187c-7.74 2.074-14.209 7.038-18.216 13.978-4.006 6.939-5.071 15.024-2.997 22.765l97.316 363.188c2.074 7.74 7.038 14.209 13.978 18.216 4.623 2.669 9.752 4.032 14.951 4.032 2.605 0 5.229-.343 7.813-1.035l68.915-18.465v14.107c0 16.542 13.458 30 30 30h248c16.542 0 30-13.458 30-30v-143c0-5.523-4.477-10-10-10s-10 4.477-10 10v143c0 5.514-4.486 10-10 10h-248c-5.514 0-10-4.486-10-10v-376c0-5.514 4.486-10 10-10h248c5.514 0 10 4.486 10 10v143c0 5.523 4.477 10 10 10s10-4.477 10-10v-143c0-16.542-13.458-30-30-30zm-278 208.053c-9.741 9.77-25.282 12-37.45 4.976-14.795-8.543-19.882-27.529-11.34-42.324l32.566-56.406 16.224 9.367zm0-178.053v70.571l-14.884-8.593c-4.784-2.763-10.899-1.123-13.66 3.66l-37.566 65.066c-6.809 11.793-8.618 25.533-5.093 38.687 3.524 13.154 11.961 24.148 23.754 30.957 8.075 4.662 16.893 6.913 25.605 6.913 7.547 0 15.012-1.696 21.844-4.971v138.897l-74.091 19.853c-2.58.69-5.275.337-7.588-.999-2.313-1.335-3.968-3.492-4.659-6.072l-97.316-363.189c-1.427-5.326 1.745-10.82 7.071-12.248l239.55-64.187c2.579-.691 5.274-.336 7.588.999 2.313 1.335 3.968 3.492 4.659 6.072l13.018 48.583h-58.232c-16.542.001-30 13.459-30 30.001z"/><path id="XMLID_1258_" d="m308.915 199.335c5.151-1.992 7.713-7.782 5.721-12.933l-21.651-56c-1.49-3.854-5.196-6.394-9.327-6.394s-7.837 2.54-9.327 6.394l-21.65 56c-1.992 5.151.57 10.941 5.721 12.933 1.186.459 2.404.676 3.604.676 4.011 0 7.796-2.431 9.329-6.397l12.323-31.875 12.324 31.875c1.991 5.151 7.783 7.715 12.933 5.721z"/><path id="XMLID_1259_" d="m423.03 457.614c1.49 3.853 5.196 6.394 9.327 6.394s7.837-2.54 9.327-6.394l21.65-56c1.992-5.151-.57-10.941-5.721-12.933-5.15-1.99-10.941.57-12.933 5.721l-12.323 31.875-12.324-31.875c-1.991-5.151-7.783-7.715-12.933-5.721-5.151 1.992-7.713 7.782-5.721 12.933z"/><path id="XMLID_1324_" d="m350.937 370.079c1.952 1.953 4.512 2.929 7.071 2.929s5.119-.976 7.071-2.929l53.127-53.127c19.878-19.878 19.878-52.223 0-72.101v-.001c-16.224-16.223-40.583-19.517-60.198-8.876-19.614-10.639-43.975-7.346-60.198 8.876-19.878 19.878-19.878 52.223 0 72.101zm-38.985-111.086c5.961-5.961 13.956-9.019 21.978-9.019 6.379 0 12.776 1.935 18.176 5.882 3.515 2.569 8.288 2.569 11.803 0 12.192-8.911 29.455-7.563 40.154 3.136 12.08 12.081 12.08 31.737 0 43.817l-46.056 46.056-46.056-46.055c-12.079-12.08-12.079-31.737.001-43.817z"/><path id="XMLID_1325_" d="m502.008 284.008c-2.63 0-5.21 1.07-7.07 2.93s-2.93 4.44-2.93 7.07 1.07 5.21 2.93 7.07 4.44 2.93 7.07 2.93 5.21-1.07 7.07-2.93 2.93-4.44 2.93-7.07-1.07-5.21-2.93-7.07-4.44-2.93-7.07-2.93z"/></g></g></svg>