<svg height="512pt" viewBox="0 -8 512 512" width="512pt" xmlns="http://www.w3.org/2000/svg"><path d="m488 48v304h-464v-304c0-8.878906 7.121094-16 16-16h432c8.878906 0 16 7.121094 16 16zm0 0" fill="#48cfad"/><path d="m472 32h-32c8.878906 0 16 7.121094 16 16v304h32v-304c0-8.878906-7.121094-16-16-16zm0 0" fill="#37bc9b"/><path d="m190.878906 424h130.242188l8.558594 24h-147.359376zm0 0" fill="#f7c292"/><path d="m208 376-17.121094 48-8.558594 24-14.320312 40h-40l40-112zm0 0" fill="#ffd2a6"/><path d="m344 376 40 112h-40l-14.320312-40-8.558594-24-17.121094-48zm0 0" fill="#ffd2a6"/><path d="m504 352v24h-496v-24zm0 0" fill="#656d78"/><path d="m488 352h-16v24h32v-24zm0 0" fill="#434a54"/><path d="m224 8h64v24h-64zm0 0" fill="#ffd2a6"/><path d="m432 88-8 16 8 16h-48v-32zm0 0" fill="#ed5565"/><path d="m408 160c0 13.28125-10.71875 24-24 24s-24-10.71875-24-24 10.71875-24 24-24 24 10.71875 24 24zm0 0" fill="#f5f7fa"/><path d="m104 248c13.28125 0 24 10.71875 24 24s-10.71875 24-24 24-24-10.71875-24-24 10.71875-24 24-24zm0 0" fill="#f5f7fa"/><path d="m24 360c-4.425781 0-8-3.574219-8-8v-304c0-4.425781 3.574219-8 8-8s8 3.574219 8 8v304c0 4.425781-3.574219 8-8 8zm0 0"/><path d="m24 56c-4.425781 0-8-3.574219-8-8 0-13.230469 10.769531-24 24-24 4.425781 0 8 3.574219 8 8s-3.574219 8-8 8c-4.414062 0-8 3.585938-8 8 0 4.425781-3.574219 8-8 8zm0 0"/><path d="m488 360c-4.425781 0-8-3.574219-8-8v-304c0-4.425781 3.574219-8 8-8s8 3.574219 8 8v304c0 4.425781-3.574219 8-8 8zm0 0"/><path d="m488 56c-4.425781 0-8-3.574219-8-8 0-4.414062-3.585938-8-8-8-4.425781 0-8-3.574219-8-8s3.574219-8 8-8c13.230469 0 24 10.769531 24 24 0 4.425781-3.574219 8-8 8zm0 0"/><path d="m472 40h-432c-4.425781 0-8-3.574219-8-8s3.574219-8 8-8h432c4.425781 0 8 3.574219 8 8s-3.574219 8-8 8zm0 0"/><path d="m504 384h-496c-4.425781 0-8-3.574219-8-8v-24c0-4.425781 3.574219-8 8-8h496c4.425781 0 8 3.574219 8 8v24c0 4.425781-3.574219 8-8 8zm-488-16h480v-8h-480zm0 0"/><path d="m168 496c-.886719 0-1.808594-.152344-2.6875-.472656-4.167969-1.488282-6.335938-6.0625-4.839844-10.214844l40-112c1.480469-4.167969 6.070313-6.359375 10.214844-4.839844 4.167969 1.488282 6.335938 6.0625 4.839844 10.214844l-40 112c-1.160156 3.273438-4.238282 5.3125-7.527344 5.3125zm0 0"/><path d="m128 496c-.886719 0-1.808594-.152344-2.6875-.472656-4.167969-1.488282-6.335938-6.0625-4.839844-10.214844l40-112c1.480469-4.167969 6.070313-6.359375 10.214844-4.839844 4.167969 1.488282 6.335938 6.0625 4.839844 10.214844l-40 112c-1.160156 3.273438-4.238282 5.3125-7.527344 5.3125zm0 0"/><path d="m168 496h-40c-4.425781 0-8-3.574219-8-8s3.574219-8 8-8h40c4.425781 0 8 3.574219 8 8s-3.574219 8-8 8zm0 0"/><path d="m344 496c-3.289062 0-6.367188-2.039062-7.527344-5.3125l-40-112c-1.496094-4.160156.679688-8.734375 4.839844-10.214844 4.136719-1.503906 8.734375.6875 10.214844 4.839844l40 112c1.496094 4.160156-.679688 8.734375-4.839844 10.214844-.878906.320312-1.800781.472656-2.6875.472656zm0 0"/><path d="m384 496c-3.289062 0-6.367188-2.039062-7.527344-5.3125l-40-112c-1.496094-4.160156.679688-8.734375 4.839844-10.214844 4.136719-1.503906 8.734375.6875 10.214844 4.839844l40 112c1.496094 4.160156-.679688 8.734375-4.839844 10.214844-.878906.320312-1.800781.472656-2.6875.472656zm0 0"/><path d="m384 496h-40c-4.425781 0-8-3.574219-8-8s3.574219-8 8-8h40c4.425781 0 8 3.574219 8 8s-3.574219 8-8 8zm0 0"/><path d="m321.144531 432h-130.289062c-4.421875 0-8-3.574219-8-8s3.578125-8 8-8h130.28125c4.421875 0 8 3.574219 8 8s-3.578125 8-7.992188 8zm0 0"/><path d="m329.710938 456h-147.421876c-4.425781 0-8-3.574219-8-8s3.574219-8 8-8h147.421876c4.425781 0 8 3.574219 8 8s-3.574219 8-8 8zm0 0"/><path d="m288 40h-64c-4.425781 0-8-3.574219-8-8v-24c0-4.425781 3.574219-8 8-8h64c4.425781 0 8 3.574219 8 8v24c0 4.425781-3.574219 8-8 8zm-56-16h48v-8h-48zm0 0"/><path d="m104 304c-17.648438 0-32-14.351562-32-32s14.351562-32 32-32 32 14.351562 32 32-14.351562 32-32 32zm0-48c-8.824219 0-16 7.175781-16 16s7.175781 16 16 16 16-7.175781 16-16-7.175781-16-16-16zm0 0"/><path d="m384 192c-17.648438 0-32-14.351562-32-32s14.351562-32 32-32 32 14.351562 32 32-14.351562 32-32 32zm0-48c-8.824219 0-16 7.175781-16 16s7.175781 16 16 16 16-7.175781 16-16-7.175781-16-16-16zm0 0"/><path d="m384 168c-4.425781 0-8-3.574219-8-8v-72c0-4.425781 3.574219-8 8-8s8 3.574219 8 8v72c0 4.425781-3.574219 8-8 8zm0 0"/><path d="m432 96h-48c-4.425781 0-8-3.574219-8-8s3.574219-8 8-8h48c4.425781 0 8 3.574219 8 8s-3.574219 8-8 8zm0 0"/><path d="m432 128h-48c-4.425781 0-8-3.574219-8-8s3.574219-8 8-8h48c4.425781 0 8 3.574219 8 8s-3.574219 8-8 8zm0 0"/><path d="m432.007812 128c-2.9375 0-5.761718-1.617188-7.167968-4.425781l-8-16c-1.128906-2.246094-1.128906-4.902344 0-7.160157l8-16c1.976562-3.949218 6.785156-5.535156 10.734375-3.574218 3.953125 1.976562 5.554687 6.785156 3.578125 10.734375l-6.207032 12.425781 6.207032 12.425781c1.976562 3.949219.375 8.757813-3.578125 10.734375-1.140625.566406-2.367188.839844-3.566407.839844zm0 0"/><path d="m144 240c-1.886719 0-3.792969-.664062-5.3125-2.023438-3.304688-2.929687-3.597656-7.992187-.664062-11.289062 2.710937-3.054688 67.792968-74.6875 189.976562-74.6875 4.425781 0 8 3.574219 8 8s-3.574219 8-8 8c-115.078125 0-177.40625 68.625-178.023438 69.3125-1.578124 1.785156-3.777343 2.6875-5.976562 2.6875zm0 0"/><path d="m312 184c-2.046875 0-4.097656-.785156-5.65625-2.34375-3.128906-3.128906-3.128906-8.183594 0-11.3125l16-16c3.128906-3.128906 8.183594-3.128906 11.3125 0s3.128906 8.183594 0 11.3125l-16 16c-1.558594 1.558594-3.609375 2.34375-5.65625 2.34375zm0 0"/><path d="m328 168c-2.046875 0-4.097656-.785156-5.65625-2.34375l-16-16c-3.128906-3.128906-3.128906-8.183594 0-11.3125s8.183594-3.128906 11.3125 0l16 16c3.128906 3.128906 3.128906 8.183594 0 11.3125-1.558594 1.558594-3.609375 2.34375-5.65625 2.34375zm0 0"/><path d="m104.238281 280.007812c-4.421875 0-8.039062-3.574218-8.039062-8 0-4.421874 3.535156-8 7.953125-8h.085937c4.417969 0 8 3.578126 8 8 0 4.425782-3.582031 8-8 8zm0 0"/><path d="m120 168c-2.046875 0-4.097656-.785156-5.65625-2.34375l-32-32c-3.128906-3.128906-3.128906-8.183594 0-11.3125s8.183594-3.128906 11.3125 0l32 32c3.128906 3.128906 3.128906 8.183594 0 11.3125-1.558594 1.558594-3.609375 2.34375-5.65625 2.34375zm0 0"/><path d="m88 168c-2.046875 0-4.097656-.785156-5.65625-2.34375-3.128906-3.128906-3.128906-8.183594 0-11.3125l32-32c3.128906-3.128906 8.183594-3.128906 11.3125 0s3.128906 8.183594 0 11.3125l-32 32c-1.558594 1.558594-3.609375 2.34375-5.65625 2.34375zm0 0"/><path d="m240 112c-2.046875 0-4.097656-.785156-5.65625-2.34375l-32-32c-3.128906-3.128906-3.128906-8.183594 0-11.3125s8.183594-3.128906 11.3125 0l32 32c3.128906 3.128906 3.128906 8.183594 0 11.3125-1.558594 1.558594-3.609375 2.34375-5.65625 2.34375zm0 0"/><path d="m208 112c-2.046875 0-4.097656-.785156-5.65625-2.34375-3.128906-3.128906-3.128906-8.183594 0-11.3125l32-32c3.128906-3.128906 8.183594-3.128906 11.3125 0s3.128906 8.183594 0 11.3125l-32 32c-1.558594 1.558594-3.609375 2.34375-5.65625 2.34375zm0 0"/><path d="m256 320c-2.046875 0-4.097656-.785156-5.65625-2.34375l-32-32c-3.128906-3.128906-3.128906-8.183594 0-11.3125s8.183594-3.128906 11.3125 0l32 32c3.128906 3.128906 3.128906 8.183594 0 11.3125-1.558594 1.558594-3.609375 2.34375-5.65625 2.34375zm0 0"/><path d="m224 320c-2.046875 0-4.097656-.785156-5.65625-2.34375-3.128906-3.128906-3.128906-8.183594 0-11.3125l32-32c3.128906-3.128906 8.183594-3.128906 11.3125 0s3.128906 8.183594 0 11.3125l-32 32c-1.558594 1.558594-3.609375 2.34375-5.65625 2.34375zm0 0"/><path d="m376 280c-2.046875 0-4.097656-.785156-5.65625-2.34375l-32-32c-3.128906-3.128906-3.128906-8.183594 0-11.3125s8.183594-3.128906 11.3125 0l32 32c3.128906 3.128906 3.128906 8.183594 0 11.3125-1.558594 1.558594-3.609375 2.34375-5.65625 2.34375zm0 0"/><path d="m344 280c-2.046875 0-4.097656-.785156-5.65625-2.34375-3.128906-3.128906-3.128906-8.183594 0-11.3125l32-32c3.128906-3.128906 8.183594-3.128906 11.3125 0s3.128906 8.183594 0 11.3125l-32 32c-1.558594 1.558594-3.609375 2.34375-5.65625 2.34375zm0 0"/></svg>