<svg height="512pt" viewBox="0 0 512 512" width="512pt" xmlns="http://www.w3.org/2000/svg"><path d="m7.507812 27.773438v456.453124c0 11.191407 9.074219 20.265626 20.265626 20.265626h456.453124c11.195313 0 20.265626-9.074219 20.265626-20.265626v-456.453124c0-11.195313-9.070313-20.265626-20.265626-20.265626h-456.453124c-11.191407 0-20.265626 9.070313-20.265626 20.265626zm0 0" fill="#c7cfe2"/><path d="m484.492188 504.492188h-79.421876v-99.425782h99.421876v79.425782c0 11.046874-8.953126 20-20 20zm0 0" fill="#629acc"/><path d="m206.355469 405.066406h99.425781v99.425782h-99.425781zm0 0" fill="#629acc"/><path d="m106.933594 504.492188h-79.425782c-11.046874 0-20-8.953126-20-20v-79.425782h99.425782zm0 0" fill="#629acc"/><path d="m206.355469 466.066406h99.425781v38.425782h-99.425781zm0 0" fill="#48709b"/><path d="m7.507812 466.066406v18.160156c0 11.191407 9.074219 20.265626 20.265626 20.265626h79.160156v-38.425782zm0 0" fill="#48709b"/><path d="m405.070312 206.21875h99.421876v99.425781h-99.421876zm0 0" fill="#629acc"/><path d="m504.492188 106.929688h-99.421876v-99.421876h79.421876c11.046874 0 20 8.953126 20 20zm0 0" fill="#629acc"/><path d="m484.226562 7.507812h-48.640624v99.421876h68.90625v-79.15625c0-11.195313-9.070313-20.265626-20.265626-20.265626zm0 0" fill="#48709b"/><path d="m435.585938 405.066406v40.730469c0 11.195313-9.074219 20.269531-20.265626 20.269531h-10.25v38.425782h79.15625c11.195313 0 20.265626-9.074219 20.265626-20.265626v-79.160156zm0 0" fill="#48709b"/><path d="m435.585938 206.21875h68.90625v99.425781h-68.90625zm0 0" fill="#48709b"/><path d="m435.585938 106.929688h68.90625v99.355468h-68.90625zm0 0" fill="#afb9d2"/><path d="m435.585938 305.644531h68.90625v99.421875h-68.90625zm0 0" fill="#afb9d2"/><path d="m305.792969 466.066406h99.273437v38.425782h-99.273437zm0 0" fill="#afb9d2"/><path d="m106.933594 466.066406h99.421875v38.425782h-99.421875zm0 0" fill="#afb9d2"/><g fill="#629acc"><path d="m206.355469 206.21875h99.425781v99.425781h-99.425781zm0 0"/><path d="m7.507812 206.21875h99.425782v99.425781h-99.425782zm0 0"/><path d="m7.507812 106.929688h99.425782v-99.421876h-79.425782c-11.046874 0-20 8.953126-20 20zm0 0"/><path d="m206.355469 7.507812h99.425781v99.421876h-99.425781zm0 0"/><path d="m305.78125 305.644531h99.289062v99.421875h-99.289062zm0 0"/><path d="m106.933594 305.644531h99.421875v99.421875h-99.421875zm0 0"/><path d="m305.78125 106.929688h99.289062v99.289062h-99.289062zm0 0"/><path d="m106.933594 106.929688h99.421875v99.289062h-99.421875zm0 0"/></g><path d="m384.515625 57.148438c0 16.066406-13.023437 29.09375-29.089844 29.09375-16.066406 0-29.089843-13.027344-29.089843-29.09375 0-16.066407 13.023437-29.089844 29.089843-29.089844 16.066407 0 29.089844 13.023437 29.089844 29.089844zm0 0" fill="#fff"/><path d="m185.734375 454.78125c0 16.066406-13.023437 29.089844-29.089844 29.089844-16.066406 0-29.089843-13.023438-29.089843-29.089844s13.023437-29.089844 29.089843-29.089844c16.066407 0 29.089844 13.023438 29.089844 29.089844zm0 0" fill="#48709b"/><path d="m483.871094 156.644531c0 16.066407-13.023438 29.089844-29.089844 29.089844s-29.089844-13.023437-29.089844-29.089844c0-16.066406 13.023438-29.089843 29.089844-29.089843s29.089844 13.023437 29.089844 29.089843zm0 0" fill="#fff"/><path d="m86.308594 57.21875c0 16.066406-13.023438 29.089844-29.089844 29.089844s-29.089844-13.023438-29.089844-29.089844 13.023438-29.089844 29.089844-29.089844 29.089844 13.023438 29.089844 29.089844zm0 0" fill="#fff"/><path d="m185.734375 156.574219c0 16.066406-13.023437 29.089843-29.089844 29.089843-16.066406 0-29.089843-13.023437-29.089843-29.089843 0-16.066407 13.023437-29.089844 29.089843-29.089844 16.066407 0 29.089844 13.023437 29.089844 29.089844zm0 0" fill="#fff"/><path d="m285.089844 355.355469c0 16.066406-13.023438 29.089843-29.089844 29.089843s-29.089844-13.023437-29.089844-29.089843c0-16.066407 13.023438-29.089844 29.089844-29.089844s29.089844 13.023437 29.089844 29.089844zm0 0" fill="#48709b"/><path d="m86.308594 355.355469c0 16.066406-13.023438 29.089843-29.089844 29.089843s-29.089844-13.023437-29.089844-29.089843c0-16.066407 13.023438-29.089844 29.089844-29.089844s29.089844 13.023437 29.089844 29.089844zm0 0" fill="#48709b"/><path d="m384.515625 256.035156c0 16.066406-13.023437 29.089844-29.089844 29.089844-16.066406 0-29.089843-13.023438-29.089843-29.089844s13.023437-29.09375 29.089843-29.09375c16.066407 0 29.089844 13.027344 29.089844 29.09375zm0 0" fill="#48709b"/><path d="m355.425781 28.058594c-3.515625 0-6.882812.621094-10 1.761718 11.140625 4.078126 19.089844 14.777344 19.089844 27.328126 0 12.554687-7.949219 23.25-19.089844 27.328124 3.117188 1.140626 6.484375 1.761719 10 1.761719 16.066407 0 29.089844-13.023437 29.089844-29.089843 0-16.066407-13.023437-29.089844-29.089844-29.089844zm0 0" fill="#afb9d2"/><path d="m156.644531 425.6875c-3.515625 0-6.882812.625-10 1.765625 11.140625 4.078125 19.089844 14.773437 19.089844 27.328125 0 12.550781-7.949219 23.246094-19.089844 27.324219 3.117188 1.140625 6.484375 1.765625 10 1.765625 16.066407 0 29.089844-13.023438 29.089844-29.089844s-13.023437-29.09375-29.089844-29.09375zm0 0" fill="#3a6187"/><path d="m454.78125 127.550781c-3.515625 0-6.882812.625-10 1.765625 11.140625 4.078125 19.089844 14.773438 19.089844 27.328125 0 12.550781-7.949219 23.246094-19.089844 27.324219 3.117188 1.140625 6.484375 1.765625 10 1.765625 16.066406 0 29.089844-13.023437 29.089844-29.089844 0-16.066406-13.023438-29.09375-29.089844-29.09375zm0 0" fill="#afb9d2"/><path d="m57.21875 28.128906c-3.515625 0-6.882812.621094-10 1.761719 11.140625 4.078125 19.089844 14.773437 19.089844 27.328125 0 12.550781-7.949219 23.25-19.089844 27.328125 3.117188 1.140625 6.484375 1.761719 10 1.761719 16.066406 0 29.089844-13.023438 29.089844-29.089844s-13.023438-29.089844-29.089844-29.089844zm0 0" fill="#afb9d2"/><path d="m156.644531 127.484375c-3.515625 0-6.882812.621094-10 1.761719 11.140625 4.078125 19.089844 14.773437 19.089844 27.328125 0 12.554687-7.949219 23.25-19.089844 27.328125 3.117188 1.140625 6.484375 1.761718 10 1.761718 16.066407 0 29.089844-13.023437 29.089844-29.089843 0-16.066407-13.023437-29.089844-29.089844-29.089844zm0 0" fill="#afb9d2"/><path d="m256 326.265625c-3.515625 0-6.882812.621094-10 1.761719 11.140625 4.078125 19.089844 14.773437 19.089844 27.328125 0 12.550781-7.949219 23.25-19.089844 27.328125 3.117188 1.140625 6.484375 1.761718 10 1.761718 16.066406 0 29.089844-13.023437 29.089844-29.089843.003906-16.066407-13.023438-29.089844-29.089844-29.089844zm0 0" fill="#3a6187"/><path d="m57.21875 326.265625c-3.515625 0-6.882812.621094-10 1.761719 11.140625 4.078125 19.089844 14.773437 19.089844 27.328125 0 12.550781-7.949219 23.25-19.089844 27.328125 3.117188 1.140625 6.484375 1.761718 10 1.761718 16.066406 0 29.089844-13.023437 29.089844-29.089843.003906-16.066407-13.023438-29.089844-29.089844-29.089844zm0 0" fill="#3a6187"/><path d="m355.425781 226.941406c-3.515625 0-6.882812.625-10 1.765625 11.140625 4.078125 19.089844 14.773438 19.089844 27.328125 0 12.550782-7.949219 23.246094-19.089844 27.324219 3.117188 1.144531 6.484375 1.765625 10 1.765625 16.066407 0 29.089844-13.023438 29.089844-29.089844s-13.023437-29.09375-29.089844-29.09375zm0 0" fill="#3a6187"/><path d="m484.226562 0h-456.453124c-15.3125 0-27.773438 12.460938-27.773438 27.773438v456.453124c0 15.3125 12.460938 27.773438 27.773438 27.773438h456.453124c15.3125 0 27.773438-12.460938 27.773438-27.773438v-456.453124c0-15.3125-12.460938-27.773438-27.773438-27.773438zm-277.90625 79.339844c4.148438 0 7.507813-3.359375 7.507813-7.507813v-56.820312h84.445313v84.414062h-183.835938v-84.414062h84.378906v56.820312c0 4.144531 3.359375 7.507813 7.503906 7.507813zm206.253907 134.382812h84.410156v84.414063h-84.410156zm0-15.011718v-84.273438h84.410156v84.273438zm-15.011719 99.425781h-84.277344v-84.410157h56.425782c4.144531 0 7.503906-3.363281 7.503906-7.507812 0-4.148438-3.359375-7.507812-7.503906-7.507812h-56.425782v-84.273438h84.277344zm-127.605469 0h-56.128906v-84.410157h84.445313v183.835938h-84.445313v-84.414062h56.128906c4.144531 0 7.507813-3.359376 7.507813-7.503907 0-4.148437-3.363282-7.507812-7.507813-7.507812zm-155.519531-84.414063h84.378906v84.414063h-84.378906zm-15.011719 84.414063h-84.414062v-84.410157h84.414062zm198.847657-183.699219v84.273438h-84.445313v-84.273438zm15.015624-15.011719v-84.414062h84.273438v84.414062zm-114.472656 15.011719v84.273438h-84.378906v-84.273438zm-99.390625 84.273438h-84.414062v-84.273438h84.414062zm-84.414062 114.4375h84.414062v84.414062h-84.414062zm99.425781 0h84.378906v84.414062h-84.378906zm84.378906 99.425781v84.410156h-84.378906v-84.410156zm15.011719 0h84.445313v84.410156h-84.445313zm99.460937 0h84.273438v84.410156h-84.273438zm0-15.011719v-84.414062h84.273438v84.414062zm99.285157-84.414062h84.410156v84.414062h-84.410156zm84.414062-285.375v71.652343h-84.414062v-84.414062h71.652343c7.035157 0 12.761719 5.726562 12.761719 12.761719zm-469.214843-12.761719h71.652343v84.414062h-84.414062v-71.652343c0-7.035157 5.726562-12.761719 12.761719-12.761719zm-12.761719 469.214843v-71.652343h84.414062v84.414062h-71.652343c-7.035157 0-12.761719-5.726562-12.761719-12.761719zm469.214843 12.761719h-71.652343v-84.414062h84.414062v71.652343c0 7.035157-5.726562 12.761719-12.761719 12.761719zm0 0"/><path d="m355.425781 93.746094c-20.179687 0-36.597656-16.417969-36.597656-36.597656 0-20.179688 16.417969-36.59375 36.597656-36.59375 20.179688 0 36.597657 16.417968 36.597657 36.59375 0 20.179687-16.417969 36.597656-36.597657 36.597656zm0-58.179688c-11.902343 0-21.585937 9.679688-21.585937 21.582032 0 11.902343 9.683594 21.585937 21.585937 21.585937 11.902344 0 21.585938-9.683594 21.585938-21.585937 0-11.902344-9.683594-21.582032-21.585938-21.582032zm0 0"/><path d="m156.644531 491.378906c-20.179687 0-36.597656-16.417968-36.597656-36.597656s16.417969-36.597656 36.597656-36.597656c20.179688 0 36.597657 16.417968 36.597657 36.597656s-16.417969 36.597656-36.597657 36.597656zm0-58.183594c-11.902343 0-21.585937 9.683594-21.585937 21.585938s9.683594 21.582031 21.585937 21.582031c11.902344 0 21.582031-9.679687 21.582031-21.582031s-9.679687-21.585938-21.582031-21.585938zm0 0"/><path d="m454.78125 193.242188c-20.179688 0-36.597656-16.417969-36.597656-36.597657 0-20.179687 16.417968-36.597656 36.597656-36.597656s36.597656 16.417969 36.597656 36.597656c0 20.179688-16.417968 36.597657-36.597656 36.597657zm0-58.183594c-11.902344 0-21.585938 9.683594-21.585938 21.585937 0 11.902344 9.683594 21.582031 21.585938 21.582031s21.585938-9.679687 21.585938-21.582031c0-11.902343-9.683594-21.585937-21.585938-21.585937zm0 0"/><path d="m57.21875 93.816406c-20.179688 0-36.597656-16.417968-36.597656-36.597656s16.417968-36.597656 36.597656-36.597656 36.597656 16.417968 36.597656 36.597656-16.417968 36.597656-36.597656 36.597656zm0-58.183594c-11.902344 0-21.582031 9.683594-21.582031 21.585938s9.679687 21.585938 21.582031 21.585938 21.585938-9.683594 21.585938-21.585938-9.683594-21.585938-21.585938-21.585938zm0 0"/><path d="m156.644531 193.171875c-20.179687 0-36.597656-16.417969-36.597656-36.597656 0-20.179688 16.417969-36.597657 36.597656-36.597657 20.179688 0 36.597657 16.417969 36.597657 36.597657 0 20.179687-16.417969 36.597656-36.597657 36.597656zm0-58.183594c-11.902343 0-21.585937 9.683594-21.585937 21.585938 0 11.902343 9.683594 21.585937 21.585937 21.585937 11.902344 0 21.582031-9.683594 21.582031-21.585937 0-11.902344-9.679687-21.585938-21.582031-21.585938zm0 0"/><path d="m256 391.953125c-20.179688 0-36.597656-16.417969-36.597656-36.597656 0-20.179688 16.417968-36.597657 36.597656-36.597657s36.597656 16.417969 36.597656 36.597657c0 20.179687-16.417968 36.597656-36.597656 36.597656zm0-58.183594c-11.902344 0-21.585938 9.683594-21.585938 21.585938 0 11.902343 9.683594 21.585937 21.585938 21.585937s21.585938-9.683594 21.585938-21.585937c0-11.902344-9.683594-21.585938-21.585938-21.585938zm0 0"/><path d="m57.21875 391.953125c-20.179688 0-36.597656-16.417969-36.597656-36.597656 0-20.179688 16.417968-36.597657 36.597656-36.597657s36.597656 16.417969 36.597656 36.597657c0 20.179687-16.417968 36.597656-36.597656 36.597656zm0-58.183594c-11.902344 0-21.582031 9.683594-21.582031 21.585938 0 11.902343 9.679687 21.585937 21.582031 21.585937s21.585938-9.683594 21.585938-21.585937c0-11.902344-9.683594-21.585938-21.585938-21.585938zm0 0"/><path d="m355.425781 292.632812c-20.179687 0-36.597656-16.417968-36.597656-36.597656 0-20.179687 16.417969-36.597656 36.597656-36.597656 20.179688 0 36.597657 16.417969 36.597657 36.597656 0 20.179688-16.417969 36.597656-36.597657 36.597656zm0-58.183593c-11.902343 0-21.585937 9.683593-21.585937 21.582031 0 11.902344 9.683594 21.585938 21.585937 21.585938 11.902344 0 21.585938-9.683594 21.585938-21.585938 0-11.898438-9.683594-21.582031-21.585938-21.582031zm0 0"/></svg>