<?xml version="1.0" encoding="iso-8859-1"?>
<!-- Generator: Adobe Illustrator 19.0.0, SVG Export Plug-In . SVG Version: 6.00 Build 0)  -->
<svg version="1.1" id="Capa_1" xmlns="http://www.w3.org/2000/svg" xmlns:xlink="http://www.w3.org/1999/xlink" x="0px" y="0px"
	 viewBox="0 0 512 512" style="enable-background:new 0 0 512 512;" xml:space="preserve">
<path style="fill:#8D584E;" d="M256,77.25v90c24.853,0,45-20.147,45-45S280.853,77.25,256,77.25z"/>
<path style="fill:#A96A5B;" d="M271,122.25c0-24.853-6.716-45-15-45c-24.853,0-45,20.147-45,45s20.147,45,45,45
	C264.284,167.25,271,147.103,271,122.25z"/>
<circle style="fill:#632B21;" cx="256" cy="54.75" r="22.5"/>
<rect x="211" y="297.25" style="fill:#E34339;" width="90" height="65"/>
<polygon style="fill:#8D584E;" points="354.5,287.25 324.5,302.25 354.5,317.25 404.5,317.25 404.5,287.25 "/>
<rect x="107.5" y="287.25" style="fill:#A96A5B;" width="247" height="30"/>
<polygon style="fill:#629D3C;" points="67.5,287.25 97.5,377.25 127.5,362.25 127.5,317.25 "/>
<path style="fill:#8DC051;" d="M37.5,317.25c0,24.853,20.147,45,45,45l15,15v-80L37.5,317.25z"/>
<path style="fill:#FDE855;" d="M107.5,197.25h-30l20,120h30v-100C127.5,206.204,118.546,197.25,107.5,197.25z"/>
<path style="fill:#186DD7;" d="M429.5,287.25v75c24.853,0,45-20.147,45-45L429.5,287.25z"/>
<path style="fill:#1A93EA;" d="M444.5,317.25v-30l-60,30v45l22.5,15l22.5-15C437.784,362.25,444.5,342.103,444.5,317.25z"/>
<polygon style="fill:#C57C68;" points="474.5,362.25 454.5,377.25 474.5,392.25 504.5,392.25 504.5,362.25 "/>
<rect x="384.5" y="362.25" style="fill:#E18F75;" width="90" height="30"/>
<polygon style="fill:#C57C68;" points="97.5,362.25 77.5,377.25 97.5,392.25 127.5,392.25 127.5,362.25 "/>
<rect x="7.5" y="362.25" style="fill:#E18F75;" width="90" height="30"/>
<path style="fill:#629D3C;" d="M454.5,197.25h-30l20,120h30v-100C474.5,206.204,465.546,197.25,454.5,197.25z"/>
<path style="fill:#8DC051;" d="M424.5,197.25h-20c-11.046,0-20,8.954-20,20v100h60v-100C444.5,206.204,435.546,197.25,424.5,197.25z
	"/>
<path style="fill:#84473C;" d="M82.5,77.25v90c24.853,0,45-20.147,45-45S107.353,77.25,82.5,77.25z"/>
<path style="fill:#8D584E;" d="M97.5,122.25c0-24.853-6.716-45-15-45c-24.853,0-45,20.147-45,45s20.147,45,45,45
	C90.784,167.25,97.5,147.103,97.5,122.25z"/>
<path style="fill:#FDF3A9;" d="M97.5,217.25c0-11.046-8.954-20-20-20h-20c-11.046,0-20,8.954-20,20v100h60V217.25z"/>
<path style="fill:#1CB9FD;" d="M316,152.25l-20,52.5l20,82.5h30v-135C346,152.25,331.78,152.25,316,152.25z"/>
<path style="fill:#60CEFD;" d="M276,152.25c-11.046,0-20,8.954-20,20l-30,57.5l30,57.5h60v-135
	C299.648,152.25,281.621,152.25,276,152.25z"/>
<path style="fill:#8FDBFD;" d="M236,152.25c-11.046,0-70,0-70,0v135h90v-115C256,161.204,247.046,152.25,236,152.25z"/>
<path style="fill:#FDC0AB;" d="M429.5,77.25v101l45-46v-10C474.5,97.397,454.353,77.25,429.5,77.25z"/>
<path style="fill:#FDDFD3;" d="M429.5,77.25c-24.853,0-45,20.147-45,45v10l60,46v-56C444.5,97.397,437.784,77.25,429.5,77.25z"/>
<path style="fill:#E34339;" d="M448.209,132.25c-1.053-1.573-2.303-3.002-3.709-4.261l-15,69.261c24.853,0,45-20.147,45-45v-20
	H448.209z"/>
<path style="fill:#F06449;" d="M444.5,152.25v-24.261c-3.981-3.566-9.235-5.739-15-5.739c-7.801,0-14.672,3.971-18.709,10H384.5v20
	c0,24.853,20.147,45,45,45C437.784,197.25,444.5,177.103,444.5,152.25z"/>
<path d="M504.5,197.25c-4.143,0-7.5,3.357-7.5,7.5v150h-30.808c9.745-9.537,15.808-22.821,15.808-37.5v-100
	c0-11.727-7.381-21.757-17.739-25.704C475.13,181.92,482,167.876,482,152.25v-30c0-28.948-23.552-52.5-52.5-52.5
	S377,93.302,377,122.25v30c0,15.626,6.87,29.67,17.739,39.296C384.381,195.493,377,205.523,377,217.25v62.5h-23.5v-90h2.5
	c4.143,0,7.5-3.357,7.5-7.5s-3.357-7.5-7.5-7.5h-2.5v-22.5c0-4.143-3.357-7.5-7.5-7.5h-42.576c3.312-6.973,5.076-14.641,5.076-22.5
	c0-20.964-12.356-39.09-30.165-47.499C283.097,69.439,286,62.428,286,54.75c0-16.542-13.458-30-30-30s-30,13.458-30,30
	c0,7.678,2.903,14.689,7.665,20.001C215.856,83.16,203.5,101.286,203.5,122.25c0,7.859,1.764,15.527,5.076,22.5H166
	c-4.142,0-7.5,3.357-7.5,7.5v22.5H156c-4.142,0-7.5,3.357-7.5,7.5s3.358,7.5,7.5,7.5h2.5v90H135v-62.5
	c0-15.163-12.336-27.5-27.5-27.5h-50c-15.164,0-27.5,12.337-27.5,27.5v100c0,14.679,6.063,27.963,15.808,37.5H15v-150
	c0-4.143-3.358-7.5-7.5-7.5s-7.5,3.357-7.5,7.5v275c0,4.143,3.358,7.5,7.5,7.5s7.5-3.357,7.5-7.5v-80h105v80
	c0,4.143,3.358,7.5,7.5,7.5s7.5-3.357,7.5-7.5v-155h68.5v37.5c0,4.143,3.358,7.5,7.5,7.5h17.5v110c0,4.143,3.358,7.5,7.5,7.5
	s7.5-3.357,7.5-7.5v-110h25v110c0,4.143,3.357,7.5,7.5,7.5s7.5-3.357,7.5-7.5v-110H301c4.143,0,7.5-3.357,7.5-7.5v-37.5H377v155
	c0,4.143,3.357,7.5,7.5,7.5s7.5-3.357,7.5-7.5v-80h105v80c0,4.143,3.357,7.5,7.5,7.5s7.5-3.357,7.5-7.5v-275
	C512,200.607,508.643,197.25,504.5,197.25z M429.5,84.75c20.678,0,37.5,16.822,37.5,37.5v2.5h-15.139
	c-5.653-6.324-13.747-10-22.361-10s-16.708,3.676-22.361,10H392v-2.5C392,101.572,408.822,84.75,429.5,84.75z M392,152.25v-12.5
	h18.791c2.502,0,4.84-1.248,6.232-3.327c2.797-4.179,7.462-6.673,12.477-6.673s9.68,2.494,12.477,6.673
	c1.393,2.079,3.73,3.327,6.232,3.327H467v12.5c0,20.678-16.822,37.5-37.5,37.5S392,172.928,392,152.25z M392,217.25
	c0-6.893,5.607-12.5,12.5-12.5h50c6.893,0,12.5,5.607,12.5,12.5v92.5h-75v-15h7.5c28.948,0,52.5-23.552,52.5-52.5v-15
	c0-4.143-3.357-7.5-7.5-7.5s-7.5,3.357-7.5,7.5v15c0,20.678-16.822,37.5-37.5,37.5H392V217.25z M338.5,174.75H336
	c-4.143,0-7.5,3.357-7.5,7.5s3.357,7.5,7.5,7.5h2.5v90h-75v-107.5c0-6.893,5.607-12.5,12.5-12.5h62.5V174.75z M241,54.75
	c0-8.271,6.729-15,15-15s15,6.729,15,15s-6.729,15-15,15S241,63.021,241,54.75z M218.5,122.25c0-20.678,16.822-37.5,37.5-37.5
	s37.5,16.822,37.5,37.5c0,8.157-2.65,16.03-7.511,22.5H276c-7.875,0-14.982,3.333-20,8.655c-5.018-5.323-12.125-8.655-20-8.655
	h-9.989C221.15,138.28,218.5,130.407,218.5,122.25z M173.5,189.75h2.5c4.142,0,7.5-3.357,7.5-7.5s-3.358-7.5-7.5-7.5h-2.5v-15H236
	c6.893,0,12.5,5.607,12.5,12.5v107.5h-75V189.75z M57.5,204.75h50c6.893,0,12.5,5.607,12.5,12.5v62.5h-7.5
	c-20.678,0-37.5-16.822-37.5-37.5v-15c0-4.143-3.358-7.5-7.5-7.5s-7.5,3.357-7.5,7.5v15c0,28.948,23.551,52.5,52.5,52.5h7.5v15H45
	v-92.5C45,210.357,50.607,204.75,57.5,204.75z M15,384.75v-15h105v15H15z M120,354.75H82.5c-18.11,0-33.261-12.904-36.745-30H120
	V354.75z M293.5,354.75h-75v-30h75V354.75z M135,309.75v-15h242v15H135z M466.245,324.75c-3.484,17.096-18.635,30-36.745,30H392v-30
	H466.245z M392,384.75v-15h105v15H392z"/>
<path d="M82.5,174.75c28.949,0,52.5-23.552,52.5-52.5s-23.551-52.5-52.5-52.5S30,93.302,30,122.25S53.551,174.75,82.5,174.75z
	 M82.5,84.75c20.678,0,37.5,16.822,37.5,37.5s-16.822,37.5-37.5,37.5S45,142.928,45,122.25S61.822,84.75,82.5,84.75z"/>
<path d="M206,472.25h-21v-110c0-4.143-3.358-7.5-7.5-7.5h-20c-4.142,0-7.5,3.357-7.5,7.5s3.358,7.5,7.5,7.5H170v110
	c0,4.143,3.358,7.5,7.5,7.5H206c4.142,0,7.5-3.357,7.5-7.5S210.142,472.25,206,472.25z"/>
<path d="M354.5,354.75h-20c-4.143,0-7.5,3.357-7.5,7.5v110h-21c-4.143,0-7.5,3.357-7.5,7.5s3.357,7.5,7.5,7.5h28.5
	c4.143,0,7.5-3.357,7.5-7.5v-110h12.5c4.143,0,7.5-3.357,7.5-7.5S358.643,354.75,354.5,354.75z"/>
<g>
</g>
<g>
</g>
<g>
</g>
<g>
</g>
<g>
</g>
<g>
</g>
<g>
</g>
<g>
</g>
<g>
</g>
<g>
</g>
<g>
</g>
<g>
</g>
<g>
</g>
<g>
</g>
<g>
</g>
</svg>
